<?xml version="1.0" encoding="UTF-8" standalone="no"?>
<svg
   xmlns:dc="http://purl.org/dc/elements/1.1/"
   xmlns:cc="http://creativecommons.org/ns#"
   xmlns:rdf="http://www.w3.org/1999/02/22-rdf-syntax-ns#"
   xmlns:svg="http://www.w3.org/2000/svg"
   xmlns="http://www.w3.org/2000/svg"
   xmlns:sodipodi="http://sodipodi.sourceforge.net/DTD/sodipodi-0.dtd"
   xmlns:inkscape="http://www.inkscape.org/namespaces/inkscape"
   sodipodi:docname="logo-outline.svg"
   inkscape:version="1.0 (4035a4fb49, 2020-05-01)"
   id="svg2754"
   version="1.1"
   viewBox="0 0 6.3499999 6.3500002"
   height="24"
   width="24">
  <defs
     id="defs2748" />
  <sodipodi:namedview
     inkscape:snap-smooth-nodes="true"
     inkscape:window-maximized="1"
     inkscape:window-y="-8"
     inkscape:window-x="1912"
     inkscape:window-height="1017"
     inkscape:window-width="1920"
     showguides="true"
     inkscape:snap-center="true"
     inkscape:snap-intersection-paths="true"
     inkscape:snap-object-midpoints="true"
     units="px"
     showgrid="true"
     inkscape:document-rotation="0"
     inkscape:current-layer="layer1"
     inkscape:document-units="mm"
     inkscape:cy="40.973217"
     inkscape:cx="37.713428"
     inkscape:zoom="7.919596"
     inkscape:pageshadow="2"
     inkscape:pageopacity="0.0"
     borderopacity="1.0"
     bordercolor="#666666"
     pagecolor="#ffffff"
     id="base">
    <inkscape:grid
       id="grid3317"
       type="xygrid" />
  </sodipodi:namedview>
  <metadata
     id="metadata2751">
    <rdf:RDF>
      <cc:Work
         rdf:about="">
        <dc:format>image/svg+xml</dc:format>
        <dc:type
           rdf:resource="http://purl.org/dc/dcmitype/StillImage" />
        <dc:title></dc:title>
      </cc:Work>
    </rdf:RDF>
  </metadata>
  <g
     id="layer1"
     inkscape:groupmode="layer"
     inkscape:label="Layer 1">
    <path
       transform="scale(0.26458333)"
       d="M 10 5 C 8.8920001 5 8 5.8920001 8 7 L 8 9 L 6 9 C 4.8920001 9 4 9.8920001 4 11 L 4 17 L 2 19 L 6 19 L 14 19 C 15.108 19 16 18.108 16 17 L 16 15 L 18 15 L 22 15 L 20 13 L 20 7 C 20 5.8920001 19.108 5 18 5 L 10 5 z M 10.001953 6.9980469 L 17.996094 6.9980469 L 17.996094 13 L 16 13 L 16 11 C 16 9.8920001 15.108 9 14 9 L 10.001953 9 L 10.001953 6.9980469 z "
       style="fill:#000000;fill-opacity:1;stroke:none;stroke-width:2;stroke-linecap:round;stroke-dasharray:2, 3.99999"
       id="rect873" />
  </g>
</svg>
